<svg xmlns="http://www.w3.org/2000/svg" viewBox="0 0 100 100">
  <defs>
    <radialGradient id="orangeGrad" cx="30%" cy="30%" r="70%">
      <stop offset="0%" stop-color="#ffb347" />
      <stop offset="70%" stop-color="#f97316" />
      <stop offset="100%" stop-color="#ea580c" />
    </radialGradient>
    <filter id="shadow" x="-20%" y="-20%" width="140%" height="140%">
      <feDropShadow dx="0" dy="8" stdDeviation="6" flood-color="#ea580c" flood-opacity="0.3" />
    </filter>
  </defs>

  <circle cx="50" cy="55" r="40" fill="url(#orangeGrad)" filter="url(#shadow)" />
  
  <circle cx="28" cy="40" r="1.5" fill="#ea580c" opacity="0.6"/>
  <circle cx="70" cy="45" r="2" fill="#ea580c" opacity="0.5"/>
  <circle cx="35" cy="75" r="1.5" fill="#ea580c" opacity="0.4"/>
  <circle cx="65" cy="70" r="2" fill="#ea580c" opacity="0.4"/>
  <circle cx="80" cy="55" r="1.5" fill="#ea580c" opacity="0.5"/>
  <circle cx="20" cy="60" r="1.5" fill="#ea580c" opacity="0.4"/>

  <path d="M50 15 Q55 5 45 -5" fill="none" stroke="#4d2f0a" stroke-width="3" stroke-linecap="round" />

  <path d="M50 15 C50 15, 75 0, 70 20 C65 40, 50 15, 50 15" fill="#4ade80" />
  <path d="M50 15 Q60 15 65 24" fill="none" stroke="#16a34a" stroke-width="1.5" />

  <path d="M50 15 C50 15, 30 5, 35 20 C40 30, 50 15, 50 15" fill="#22c55e" />

  <g>
    <circle cx="35" cy="50" r="4" fill="#4d2f0a" />
    <circle cx="65" cy="50" r="4" fill="#4d2f0a" />
    <circle cx="33" cy="48" r="1.5" fill="#ffffff" />
    <circle cx="63" cy="48" r="1.5" fill="#ffffff" />
    <path d="M42 60 Q50 68 58 60" fill="none" stroke="#4d2f0a" stroke-width="3" stroke-linecap="round" />
  </g>
  
  <ellipse cx="25" cy="55" rx="5" ry="3" fill="#ff7f50" opacity="0.6" />
  <ellipse cx="75" cy="55" rx="5" ry="3" fill="#ff7f50" opacity="0.6" />

  <path d="M25 40 Q30 25 45 22" fill="none" stroke="#ffffff" stroke-width="2.5" stroke-linecap="round" opacity="0.6" />
</svg>
